HIERARCHY
ROOT hip
{
	OFFSET 0.000000 0.000000 0.000000 
	CHANNELS 6 Xposition Yposition Zposition Xrotation Zrotation Yrotation
	JOINT abdomen
	{
		OFFSET 0.000000 3.402643 0.000000 
		CHANNELS 3 Xrotation Zrotation Yrotation
		JOINT chest
		{
			OFFSET 0.000000 8.438565 -0.680529 
			CHANNELS 3 Xrotation Zrotation Yrotation
			JOINT neck
			{
				OFFSET 0.000000 10.207942 -0.272212 
				CHANNELS 3 Xrotation Zrotation Yrotation
				JOINT head
				{
					OFFSET 0.000000 3.130431 0.000000 
					CHANNELS 3 Xrotation Zrotation Yrotation
					End Site
					{
						OFFSET 0.000000 3.130435 0.000000 
					}
				}
			}
			JOINT lCollar
			{
				OFFSET 3.470700 6.669187 -0.816635 
				CHANNELS 3 Yrotation Zrotation Xrotation
				JOINT lShldr
				{
					OFFSET 3.198488 0.000000 0.000000 
					CHANNELS 3 Zrotation Yrotation Xrotation
					JOINT lForeArm
					{
						OFFSET 10.139888 0.000000 0.000000 
						CHANNELS 3 Yrotation Zrotation Xrotation
						JOINT lHand
						{
							OFFSET 8.370511 0.000000 0.000000 
							CHANNELS 3 Zrotation Yrotation Xrotation
							End Site
							{
								OFFSET 4.083176 0.000000 0.000000 
							}
						}
					}
				}
			}
			JOINT rCollar
			{
				OFFSET -3.470700 6.669187 -0.816635 
				CHANNELS 3 Yrotation Zrotation Xrotation
				JOINT rShldr
				{
					OFFSET -3.198488 0.000000 0.000000 
					CHANNELS 3 Zrotation Yrotation Xrotation
					JOINT rForeArm
					{
						OFFSET -10.139888 0.000000 0.000000 
						CHANNELS 3 Yrotation Zrotation Xrotation
						JOINT rHand
						{
							OFFSET -8.370511 0.000000 0.000000 
							CHANNELS 3 Zrotation Yrotation Xrotation
							End Site
							{
								OFFSET -4.083176 0.000000 0.000000 
							}
						}
					}
				}
			}
		}
	}
	JOINT lThigh
	{
		OFFSET 5.308129 -1.633274 1.361059 
		CHANNELS 3 Xrotation Zrotation Yrotation
		JOINT lShin
		{
			OFFSET -2.041588 -20.007561 0.000000 
			CHANNELS 3 Xrotation Zrotation Yrotation
			JOINT lFoot
			{
				OFFSET 0.000000 -19.190928 -1.224953 
				CHANNELS 3 Xrotation Yrotation Zrotation
				End Site
				{
					OFFSET 0.000000 -2.449906 4.627600 
				}
			}
		}
	}
	JOINT rThigh
	{
		OFFSET -5.308129 -1.633274 1.361059 
		CHANNELS 3 Xrotation Zrotation Yrotation
		JOINT rShin
		{
			OFFSET 2.041588 -20.007561 0.000000 
			CHANNELS 3 Xrotation Zrotation Yrotation
			JOINT rFoot
			{
				OFFSET 0.000000 -19.190928 -1.224953 
				CHANNELS 3 Xrotation Yrotation Zrotation
				End Site
				{
					OFFSET 0.000000 -2.449906 4.627600 
				}
			}
		}
	}
}
MOTION
Frames: 8
Frame Time: 0.033333
0.347162 49.019600 0.347162 3.974655 -0.000941 -5.527344 15.087680 3.476198 -7.370061 13.088451 1.773942 -6.210967 -8.544922 -0.001505 -0.009645 5.403219 -3.812616 34.475574 2.000000 -2.000000 0.000000 -71.336090 11.118393 -5.249020 -22.944592 -0.767277 8.372505 -8.583210 17.543072 -17.560680 -2.000000 2.000000 0.000000 73.369614 -9.380075 -3.788482 59.637749 0.532398 8.673733 7.973107 -17.457731 -20.852152 -35.578819 10.154296 -2.052338 39.325542 -0.773561 -2.983844 -7.363240 4.702290 -8.199618 -15.324866 -14.222860 3.616045 34.943253 0.961154 2.717249 -25.234156 2.453849 13.008343 
0.181880 49.099735 0.181880 3.974649 0.018602 -5.184190 15.126318 3.392315 -7.172253 13.135963 1.671446 -5.647789 -8.544922 -0.001505 -0.009645 5.765749 -3.687050 37.951294 2.000000 -2.000000 0.000000 -71.328812 12.296010 -5.857048 -21.995277 -0.778594 8.369413 -8.583210 17.543072 -17.560680 -2.000000 2.000000 0.000000 73.472641 -10.148435 -2.913399 59.964081 0.532206 8.668611 8.183687 -17.437033 -20.412188 -35.241241 10.272646 -2.056620 38.642063 -0.812709 -2.953153 -7.063817 4.334819 -8.336829 -14.978846 -14.012375 3.463601 34.591717 0.980681 2.695556 -25.098082 2.168842 12.733232 
0.061674 49.184872 0.061674 3.974644 0.018661 -4.832627 15.194198 3.295998 -6.969123 13.202543 1.557668 -5.067465 -8.544922 -0.001505 -0.009645 6.069482 -3.551348 41.226749 2.000000 -2.000000 0.000000 -71.305450 13.394228 -6.463546 -21.101944 -0.786271 8.365406 -8.583210 17.543072 -17.560680 -2.000000 2.000000 0.000000 73.599792 -10.794496 -2.061183 60.287083 0.531813 8.683557 8.371049 -17.436930 -19.981997 -34.859451 10.360119 -2.052382 37.890377 -0.861409 -2.912031 -6.702352 3.954831 -8.435303 -14.558027 -13.826096 3.331678 34.113235 1.000294 2.667383 -24.907112 1.865334 12.488521 
-0.048515 49.265007 -0.048515 3.974639 0.018723 -4.471299 15.272382 3.192873 -6.747832 13.249161 1.441042 -4.468018 -8.544922 -0.001505 -0.009645 6.324220 -3.405615 44.193668 2.000000 -2.000000 0.000000 -71.272659 14.371237 -7.017760 -20.243042 -0.793886 8.361136 -8.583210 17.543072 -17.560680 -2.000000 2.000000 0.000000 73.743034 -11.299255 -1.198474 60.600155 0.527283 8.681508 8.557812 -17.418287 -19.559500 -34.504971 10.408031 -2.009496 37.118820 -0.884736 -2.880794 -6.373843 3.585500 -8.494589 -14.127196 -13.678548 3.213061 33.586235 1.035073 2.621474 -24.711071 1.531309 12.293766 
-0.113626 49.350136 -0.113626 3.974634 0.009044 -4.100883 15.379726 3.077354 -6.521331 13.305081 1.321419 -3.849237 -8.544922 -0.001505 -0.009645 6.500634 -3.249851 46.765591 2.000000 -2.000000 0.000000 -71.225464 15.219726 -7.543428 -19.492388 -0.794209 8.349717 -8.583210 17.543072 -17.560680 -2.000000 2.000000 0.000000 73.907745 -11.673771 -0.364509 60.905651 0.531563 8.674214 8.752984 -17.419140 -19.161810 -34.140053 10.416684 -1.954807 36.347958 -0.924492 -2.825481 -6.030293 3.182575 -8.512519 -13.698986 -13.562618 3.057739 33.028633 1.049214 2.616621 -24.459219 1.197042 12.119381 
-0.183745 49.430401 -0.183745 3.974630 0.009110 -3.710259 15.507229 2.963877 -6.272571 13.361400 1.179672 -3.214838 -8.544922 -0.001505 -0.009645 6.598776 -3.074362 48.824444 2.000000 -2.000000 0.000000 -71.161209 15.920847 -8.006065 -18.781281 -0.807331 8.343840 -8.583210 17.543072 -17.560680 -2.000000 2.000000 0.000000 74.095032 -11.884581 0.499678 61.203079 0.530062 8.686887 8.930593 -17.417669 -18.774401 -33.818886 10.417077 -1.911347 35.635105 -0.953041 -2.788572 -5.672783 2.776273 -8.540318 -13.318501 -13.445683 2.964598 32.530502 1.068794 2.587030 -24.277733 0.838718 11.946926 
-0.248856 49.505405 -0.248856 3.974626 -0.000562 -3.300781 15.654388 2.834622 -6.009073 13.425749 1.056272 -2.557644 -8.544922 -0.001505 -0.009645 6.608881 -2.888937 50.272774 2.000000 -2.000000 0.000000 -71.091309 16.497536 -8.428814 -18.152996 -0.811512 8.347981 -8.583210 17.543072 -17.560680 -2.000000 2.000000 0.000000 74.301018 -11.943989 1.331108 61.512218 0.531871 8.687825 9.090569 -17.413958 -18.397327 -33.570663 10.418732 -1.886474 34.970974 -0.997942 -2.748912 -5.329915 2.374736 -8.541921 -12.972595 -13.315020 2.834704 32.130699 1.088269 2.542836 -24.092085 0.488605 11.769361 
-0.318976 49.535538 -0.318976 3.974622 -0.000491 -2.880859 15.811049 2.714264 -5.742190 13.469877 0.919356 -1.883680 -8.544922 -0.001505 -0.009645 6.521229 -2.683833 51.021969 2.000000 -2.000000 0.000000 -70.982262 16.881802 -8.746065 -17.624857 -0.814285 8.349649 -8.583210 17.543072 -17.560680 -2.000000 2.000000 0.000000 74.518242 -11.819695 2.167008 61.808815 0.531791 8.691815 9.257152 -17.398544 -18.070143 -33.405651 10.418859 -1.873375 34.482868 -1.011644 -2.718541 -5.066607 1.938061 -8.557208 -12.732111 -13.201087 2.787941 31.896065 1.098069 2.533532 -23.994633 0.094709 11.614709 
